<svg width="40" height="40" viewBox="0 0 40 40" fill="none" xmlns="http://www.w3.org/2000/svg">
<path d="M0 7.5C0 6.11953 1.27946 5 2.85714 5H37.1429C38.7232 5 40 6.11953 40 7.5C40 8.88281 38.7232 10 37.1429 10H2.85714C1.27946 10 0 8.88281 0 7.5ZM0 20C0 18.6172 1.27946 17.5 2.85714 17.5H37.1429C38.7232 17.5 40 18.6172 40 20C40 21.3828 38.7232 22.5 37.1429 22.5H2.85714C1.27946 22.5 0 21.3828 0 20ZM37.1429 35H2.85714C1.27946 35 0 33.8828 0 32.5C0 31.1172 1.27946 30 2.85714 30H37.1429C38.7232 30 40 31.1172 40 32.5C40 33.8828 38.7232 35 37.1429 35Z" fill="black"/>
</svg>
